<svg width="440" height="340" viewBox="0 0 440 340" fill="none" xmlns="http://www.w3.org/2000/svg">
<path d="M40 64C40 50.7452 50.7452 40 64 40H376C389.255 40 400 50.7452 400 64V276C400 289.255 389.255 300 376 300H64C50.7452 300 40 289.255 40 276V64Z" fill="#FAFAF5"/>
<path d="M64 41H376V39H64V41ZM399 64V276H401V64H399ZM376 299H64V301H376V299ZM41 276V64H39V276H41ZM64 299C51.2974 299 41 288.703 41 276H39C39 289.807 50.1929 301 64 301V299ZM399 276C399 288.703 388.703 299 376 299V301C389.807 301 401 289.807 401 276H399ZM376 41C388.703 41 399 51.2975 399 64H401C401 50.1929 389.807 39 376 39V41ZM64 39C50.1929 39 39 50.1929 39 64H41C41 51.2974 51.2975 41 64 41V39Z" fill="#E6E6E6"/>
</svg>
